<svg width="38" height="36" fill="none" xmlns="http://www.w3.org/2000/svg"><rect width="37.5" height="36" rx="18" fill="#fff"/><g fill="#000"><path d="M18.75 10.627h3.84c.904 0 1.356.216 1.695.325.451.217.79.325 1.13.65.338.326.564.651.677 1.085.113.325.226.759.339 1.626v7.374c0 .867-.226 1.301-.34 1.626-.225.434-.338.76-.677 1.085-.339.325-.678.542-1.13.65-.338.109-.79.217-1.694.326h-7.68c-.904 0-1.356-.217-1.695-.326-.451-.217-.79-.325-1.13-.65-.338-.326-.564-.651-.677-1.085-.113-.325-.226-.759-.339-1.626v-7.374c0-.867.226-1.301.34-1.626.225-.434.338-.76.677-1.085.339-.325.678-.542 1.13-.65.338-.109.79-.217 1.694-.325h3.84zm0-1.627h-3.84a5.871 5.871 0 00-2.26.434 4.953 4.953 0 00-1.694 1.084c-.564.542-.79.976-1.13 1.627-.225.542-.338 1.192-.451 2.168v7.374c0 .976.226 1.626.452 2.168a4.723 4.723 0 001.13 1.627c.564.542 1.016.759 1.694 1.084.564.217 1.242.326 2.259.434h7.68a5.873 5.873 0 002.26-.434 4.954 4.954 0 001.694-1.084c.564-.542.79-.976 1.13-1.627.225-.542.338-1.192.451-2.168v-7.374c0-.976-.226-1.626-.452-2.168a4.724 4.724 0 00-1.13-1.627c-.564-.542-1.016-.759-1.694-1.084-.564-.217-1.242-.326-2.259-.434h-3.84z"/><path d="M18.75 13.337c-2.71 0-4.857 2.06-4.857 4.663 0 2.602 2.146 4.663 4.857 4.663 2.71 0 4.857-2.06 4.857-4.663 0-2.602-2.146-4.663-4.857-4.663zm0 7.7c-1.694 0-3.163-1.302-3.163-3.037 0-1.627 1.356-3.036 3.163-3.036 1.694 0 3.163 1.301 3.163 3.036 0 1.627-1.469 3.036-3.163 3.036zm4.97-6.724c.624 0 1.13-.485 1.13-1.084 0-.599-.506-1.084-1.13-1.084-.624 0-1.13.485-1.13 1.084 0 .599.506 1.084 1.13 1.084z"/></g></svg>